# xmcd
#
# Track frame offsets:
#	150
#	12607
#	28217
#	47461
#	73359
#	92219
#	113102
#	127607
#	144547
#	168141
#	182252
#	198520
#	220477
#
# Disc length: 3195 seconds
# Revision: 0
# Processed by: cddbd v1.5.2PL0 Copyright (c) Steve Scherf et al.
# Submitted via: dBpowerAMP V12.0
#
DISCID=b70c790d
DTITLE=Phil Salazar and Friends - Life On The Edge
DYEAR=2013
DGENRE=Americana
TTITLE0=Monroe's Hornpipe
TTITLE1=Smooch at the Bus Stop
TTITLE2=Lonesome Moonlight Waltz
TTITLE3=Saint James Infirmary 
TTITLE4=Cherokee Fiddle
TTITLE5=Blue Bayou Nights
TTITLE6=Whiskey Before Breakfast
TTITLE7=My Guitar Myself and I
TTITLE8=Kornflakes
TTITLE9=I F B
TTITLE10=Swamp Cooler
TTITLE11=Make a Move
TTITLE12=Arkansas Travler
EXTD=
EXTT0=
EXTT1=
EXTT2=
EXTT3=
EXTT4=
EXTT5=
EXTT6=
EXTT7=
EXTT8=
EXTT9=
EXTT10=
EXTT11=
EXTT12=
PLAYORDER=
